{
	"asset":{
		"generator":"Khronos glTF Blender I/O v4.1.63",
		"version":"2.0"
	},
	"scene":0,
	"scenes":[
		{
			"name":"Scene",
			"nodes":[
				11
			]
		}
	],
	"nodes":[
		{
			"name":"\u30dc\u30fc\u30f3.008",
			"rotation":[
				-0.010735536925494671,
				-0.03088836930692196,
				-0.021324142813682556,
				0.9992377161979675
			],
			"scale":[
				1,
				0.9999999403953552,
				0.9999999403953552
			],
			"translation":[
				1.909211277961731e-08,
				0.26878416538238525,
				-6.05359673500061e-09
			]
		},
		{
			"children":[
				0
			],
			"name":"\u30dc\u30fc\u30f3.007",
			"rotation":[
				-0.023457372561097145,
				0.029758822172880173,
				0.0733528658747673,
				0.9965859651565552
			],
			"scale":[
				0.9999999403953552,
				1,
				0.9999999403953552
			],
			"translation":[
				-1.1641532182693481e-07,
				0.15516337752342224,
				1.6298145055770874e-08
			]
		},
		{
			"children":[
				1
			],
			"name":"\u30dc\u30fc\u30f3.004",
			"rotation":[
				0.21615873277187347,
				0.003404373535886407,
				-0.17521719634532928,
				0.9605013132095337
			],
			"scale":[
				0.9999998807907104,
				0.9999998807907104,
				1
			],
			"translation":[
				5.029141902923584e-08,
				0.25370094180107117,
				-1.4901161193847656e-08
			]
		},
		{
			"children":[
				2
			],
			"name":"\u30dc\u30fc\u30f3.001",
			"rotation":[
				-0.1554134041070938,
				0.1320783495903015,
				-0.7027890086174011,
				0.6815347671508789
			],
			"scale":[
				1,
				0.9999999403953552,
				0.9999999403953552
			],
			"translation":[
				-4.656612873077393e-10,
				1.1203898191452026,
				-1.1102230246251565e-16
			]
		},
		{
			"name":"\u30dc\u30fc\u30f3.009",
			"rotation":[
				-0.01467126328498125,
				-0.006459019146859646,
				0.009692979045212269,
				0.9998245239257812
			],
			"translation":[
				-6.51925802230835e-08,
				0.23374879360198975,
				-1.862645149230957e-09
			]
		},
		{
			"children":[
				4
			],
			"name":"\u30dc\u30fc\u30f3.006",
			"rotation":[
				0.1355171948671341,
				0.022073710337281227,
				-0.002646006876602769,
				0.9905255436897278
			],
			"translation":[
				-1.4528632164001465e-07,
				0.23574954271316528,
				1.1175870895385742e-08
			]
		},
		{
			"children":[
				5
			],
			"name":"\u30dc\u30fc\u30f3.005",
			"rotation":[
				-0.0083959074690938,
				-0.000495091371703893,
				0.0828147903084755,
				0.9965294599533081
			],
			"scale":[
				0.9999999403953552,
				0.9999998807907104,
				0.9999998211860657
			],
			"translation":[
				-1.0803341865539551e-07,
				0.2632882595062256,
				-3.725290298461914e-09
			]
		},
		{
			"children":[
				6
			],
			"name":"\u30dc\u30fc\u30f3.002",
			"rotation":[
				-0.09600420296192169,
				-0.07633349299430847,
				0.7356921434402466,
				0.6661182641983032
			],
			"scale":[
				1,
				1.0000001192092896,
				1
			],
			"translation":[
				-4.656612873077393e-10,
				1.1203898191452026,
				-1.1102230246251565e-16
			]
		},
		{
			"name":"\u30dc\u30fc\u30f3.003",
			"rotation":[
				-1.7686673237093942e-09,
				2.6141750097963268e-08,
				0.008880408480763435,
				0.9999605417251587
			],
			"translation":[
				-4.656612873077393e-10,
				1.1203898191452026,
				-1.1102230246251565e-16
			]
		},
		{
			"children":[
				3,
				7,
				8
			],
			"name":"\u30dc\u30fc\u30f3",
			"rotation":[
				2.82509500237893e-08,
				8.656684968855188e-08,
				-0.003992818295955658,
				0.9999920129776001
			],
			"translation":[
				0,
				0.21139104664325714,
				0
			]
		},
		{
			"mesh":0,
			"name":"HalloweenItem_Ghost01(Clone)",
			"skin":0
		},
		{
			"children":[
				10,
				9
			],
			"name":"\u30a2\u30fc\u30de\u30c1\u30e5\u30a2",
			"translation":[
				0,
				-0.017291631549596786,
				0
			]
		}
	],
	"animations":[
		{
			"channels":[
				{
					"sampler":0,
					"target":{
						"node":9,
						"path":"translation"
					}
				},
				{
					"sampler":1,
					"target":{
						"node":9,
						"path":"rotation"
					}
				},
				{
					"sampler":2,
					"target":{
						"node":9,
						"path":"scale"
					}
				},
				{
					"sampler":3,
					"target":{
						"node":3,
						"path":"translation"
					}
				},
				{
					"sampler":4,
					"target":{
						"node":3,
						"path":"rotation"
					}
				},
				{
					"sampler":5,
					"target":{
						"node":3,
						"path":"scale"
					}
				},
				{
					"sampler":6,
					"target":{
						"node":2,
						"path":"translation"
					}
				},
				{
					"sampler":7,
					"target":{
						"node":2,
						"path":"rotation"
					}
				},
				{
					"sampler":8,
					"target":{
						"node":2,
						"path":"scale"
					}
				},
				{
					"sampler":9,
					"target":{
						"node":1,
						"path":"translation"
					}
				},
				{
					"sampler":10,
					"target":{
						"node":1,
						"path":"rotation"
					}
				},
				{
					"sampler":11,
					"target":{
						"node":1,
						"path":"scale"
					}
				},
				{
					"sampler":12,
					"target":{
						"node":0,
						"path":"translation"
					}
				},
				{
					"sampler":13,
					"target":{
						"node":0,
						"path":"rotation"
					}
				},
				{
					"sampler":14,
					"target":{
						"node":0,
						"path":"scale"
					}
				},
				{
					"sampler":15,
					"target":{
						"node":7,
						"path":"translation"
					}
				},
				{
					"sampler":16,
					"target":{
						"node":7,
						"path":"rotation"
					}
				},
				{
					"sampler":17,
					"target":{
						"node":7,
						"path":"scale"
					}
				},
				{
					"sampler":18,
					"target":{
						"node":6,
						"path":"translation"
					}
				},
				{
					"sampler":19,
					"target":{
						"node":6,
						"path":"rotation"
					}
				},
				{
					"sampler":20,
					"target":{
						"node":6,
						"path":"scale"
					}
				},
				{
					"sampler":21,
					"target":{
						"node":5,
						"path":"translation"
					}
				},
				{
					"sampler":22,
					"target":{
						"node":5,
						"path":"rotation"
					}
				},
				{
					"sampler":23,
					"target":{
						"node":5,
						"path":"scale"
					}
				},
				{
					"sampler":24,
					"target":{
						"node":4,
						"path":"translation"
					}
				},
				{
					"sampler":25,
					"target":{
						"node":4,
						"path":"rotation"
					}
				},
				{
					"sampler":26,
					"target":{
						"node":4,
						"path":"scale"
					}
				},
				{
					"sampler":27,
					"target":{
						"node":8,
						"path":"translation"
					}
				},
				{
					"sampler":28,
					"target":{
						"node":8,
						"path":"rotation"
					}
				},
				{
					"sampler":29,
					"target":{
						"node":8,
						"path":"scale"
					}
				}
			],
			"name":"\u30a2\u30fc\u30de\u30c1\u30e5\u30a2Action",
			"samplers":[
				{
					"input":7,
					"interpolation":"LINEAR",
					"output":8
				},
				{
					"input":7,
					"interpolation":"LINEAR",
					"output":9
				},
				{
					"input":10,
					"interpolation":"STEP",
					"output":11
				},
				{
					"input":10,
					"interpolation":"STEP",
					"output":12
				},
				{
					"input":10,
					"interpolation":"STEP",
					"output":13
				},
				{
					"input":10,
					"interpolation":"STEP",
					"output":14
				},
				{
					"input":10,
					"interpolation":"STEP",
					"output":15
				},
				{
					"input":10,
					"interpolation":"STEP",
					"output":16
				},
				{
					"input":10,
					"interpolation":"STEP",
					"output":17
				},
				{
					"input":10,
					"interpolation":"STEP",
					"output":18
				},
				{
					"input":10,
					"interpolation":"STEP",
					"output":19
				},
				{
					"input":10,
					"interpolation":"STEP",
					"output":20
				},
				{
					"input":10,
					"interpolation":"STEP",
					"output":21
				},
				{
					"input":7,
					"interpolation":"LINEAR",
					"output":22
				},
				{
					"input":7,
					"interpolation":"LINEAR",
					"output":23
				},
				{
					"input":10,
					"interpolation":"STEP",
					"output":24
				},
				{
					"input":10,
					"interpolation":"STEP",
					"output":25
				},
				{
					"input":10,
					"interpolation":"STEP",
					"output":26
				},
				{
					"input":10,
					"interpolation":"STEP",
					"output":27
				},
				{
					"input":10,
					"interpolation":"STEP",
					"output":28
				},
				{
					"input":10,
					"interpolation":"STEP",
					"output":29
				},
				{
					"input":10,
					"interpolation":"STEP",
					"output":30
				},
				{
					"input":10,
					"interpolation":"STEP",
					"output":31
				},
				{
					"input":10,
					"interpolation":"STEP",
					"output":32
				},
				{
					"input":10,
					"interpolation":"STEP",
					"output":33
				},
				{
					"input":7,
					"interpolation":"LINEAR",
					"output":34
				},
				{
					"input":7,
					"interpolation":"LINEAR",
					"output":35
				},
				{
					"input":10,
					"interpolation":"STEP",
					"output":36
				},
				{
					"input":10,
					"interpolation":"STEP",
					"output":37
				},
				{
					"input":10,
					"interpolation":"STEP",
					"output":38
				}
			]
		}
	],
	"materials":[
		{
			"doubleSided":true,
			"name":"\u30de\u30c6\u30ea\u30a2\u30eb",
			"pbrMetallicRoughness":{
				"baseColorTexture":{
					"index":0
				},
				"metallicFactor":0,
				"roughnessFactor":0.5
			}
		}
	],
	"meshes":[
		{
			"name":"M_ghost01",
			"primitives":[
				{
					"attributes":{
						"POSITION":0,
						"NORMAL":1,
						"TEXCOORD_0":2,
						"JOINTS_0":3,
						"WEIGHTS_0":4
					},
					"indices":5,
					"material":0
				}
			]
		}
	],
	"textures":[
		{
			"sampler":0,
			"source":0
		}
	],
	"images":[
		{
			"mimeType":"image/png",
			"name":"HalloweenItems00.png",
			"uri":"HalloweenItems00.png"
		}
	],
	"skins":[
		{
			"inverseBindMatrices":6,
			"joints":[
				9,
				3,
				2,
				1,
				0,
				7,
				6,
				5,
				4,
				8
			],
			"name":"\u30a2\u30fc\u30de\u30c1\u30e5\u30a2"
		}
	],
	"accessors":[
		{
			"bufferView":0,
			"componentType":5126,
			"count":472,
			"max":[
				1.3487467765808105,
				2.4100818634033203,
				0.9031249284744263
			],
			"min":[
				-1.3487471342086792,
				-0.21363437175750732,
				-0.9031249284744263
			],
			"type":"VEC3"
		},
		{
			"bufferView":1,
			"componentType":5126,
			"count":472,
			"type":"VEC3"
		},
		{
			"bufferView":2,
			"componentType":5126,
			"count":472,
			"type":"VEC2"
		},
		{
			"bufferView":3,
			"componentType":5121,
			"count":472,
			"type":"VEC4"
		},
		{
			"bufferView":4,
			"componentType":5126,
			"count":472,
			"type":"VEC4"
		},
		{
			"bufferView":5,
			"componentType":5123,
			"count":2292,
			"type":"SCALAR"
		},
		{
			"bufferView":6,
			"componentType":5126,
			"count":10,
			"type":"MAT4"
		},
		{
			"bufferView":7,
			"componentType":5126,
			"count":121,
			"max":[
				5
			],
			"min":[
				0
			],
			"type":"SCALAR"
		},
		{
			"bufferView":8,
			"componentType":5126,
			"count":121,
			"type":"VEC3"
		},
		{
			"bufferView":9,
			"componentType":5126,
			"count":121,
			"type":"VEC4"
		},
		{
			"bufferView":10,
			"componentType":5126,
			"count":2,
			"max":[
				5
			],
			"min":[
				0
			],
			"type":"SCALAR"
		},
		{
			"bufferView":11,
			"componentType":5126,
			"count":2,
			"type":"VEC3"
		},
		{
			"bufferView":12,
			"componentType":5126,
			"count":2,
			"type":"VEC3"
		},
		{
			"bufferView":13,
			"componentType":5126,
			"count":2,
			"type":"VEC4"
		},
		{
			"bufferView":14,
			"componentType":5126,
			"count":2,
			"type":"VEC3"
		},
		{
			"bufferView":15,
			"componentType":5126,
			"count":2,
			"type":"VEC3"
		},
		{
			"bufferView":16,
			"componentType":5126,
			"count":2,
			"type":"VEC4"
		},
		{
			"bufferView":17,
			"componentType":5126,
			"count":2,
			"type":"VEC3"
		},
		{
			"bufferView":18,
			"componentType":5126,
			"count":2,
			"type":"VEC3"
		},
		{
			"bufferView":19,
			"componentType":5126,
			"count":2,
			"type":"VEC4"
		},
		{
			"bufferView":20,
			"componentType":5126,
			"count":2,
			"type":"VEC3"
		},
		{
			"bufferView":21,
			"componentType":5126,
			"count":2,
			"type":"VEC3"
		},
		{
			"bufferView":22,
			"componentType":5126,
			"count":121,
			"type":"VEC4"
		},
		{
			"bufferView":23,
			"componentType":5126,
			"count":121,
			"type":"VEC3"
		},
		{
			"bufferView":24,
			"componentType":5126,
			"count":2,
			"type":"VEC3"
		},
		{
			"bufferView":25,
			"componentType":5126,
			"count":2,
			"type":"VEC4"
		},
		{
			"bufferView":26,
			"componentType":5126,
			"count":2,
			"type":"VEC3"
		},
		{
			"bufferView":27,
			"componentType":5126,
			"count":2,
			"type":"VEC3"
		},
		{
			"bufferView":28,
			"componentType":5126,
			"count":2,
			"type":"VEC4"
		},
		{
			"bufferView":29,
			"componentType":5126,
			"count":2,
			"type":"VEC3"
		},
		{
			"bufferView":30,
			"componentType":5126,
			"count":2,
			"type":"VEC3"
		},
		{
			"bufferView":31,
			"componentType":5126,
			"count":2,
			"type":"VEC4"
		},
		{
			"bufferView":32,
			"componentType":5126,
			"count":2,
			"type":"VEC3"
		},
		{
			"bufferView":33,
			"componentType":5126,
			"count":2,
			"type":"VEC3"
		},
		{
			"bufferView":34,
			"componentType":5126,
			"count":121,
			"type":"VEC4"
		},
		{
			"bufferView":35,
			"componentType":5126,
			"count":121,
			"type":"VEC3"
		},
		{
			"bufferView":36,
			"componentType":5126,
			"count":2,
			"type":"VEC3"
		},
		{
			"bufferView":37,
			"componentType":5126,
			"count":2,
			"type":"VEC4"
		},
		{
			"bufferView":38,
			"componentType":5126,
			"count":2,
			"type":"VEC3"
		}
	],
	"bufferViews":[
		{
			"buffer":0,
			"byteLength":5664,
			"byteOffset":0,
			"target":34962
		},
		{
			"buffer":0,
			"byteLength":5664,
			"byteOffset":5664,
			"target":34962
		},
		{
			"buffer":0,
			"byteLength":3776,
			"byteOffset":11328,
			"target":34962
		},
		{
			"buffer":0,
			"byteLength":1888,
			"byteOffset":15104,
			"target":34962
		},
		{
			"buffer":0,
			"byteLength":7552,
			"byteOffset":16992,
			"target":34962
		},
		{
			"buffer":0,
			"byteLength":4584,
			"byteOffset":24544,
			"target":34963
		},
		{
			"buffer":0,
			"byteLength":640,
			"byteOffset":29128
		},
		{
			"buffer":0,
			"byteLength":484,
			"byteOffset":29768
		},
		{
			"buffer":0,
			"byteLength":1452,
			"byteOffset":30252
		},
		{
			"buffer":0,
			"byteLength":1936,
			"byteOffset":31704
		},
		{
			"buffer":0,
			"byteLength":8,
			"byteOffset":33640
		},
		{
			"buffer":0,
			"byteLength":24,
			"byteOffset":33648
		},
		{
			"buffer":0,
			"byteLength":24,
			"byteOffset":33672
		},
		{
			"buffer":0,
			"byteLength":32,
			"byteOffset":33696
		},
		{
			"buffer":0,
			"byteLength":24,
			"byteOffset":33728
		},
		{
			"buffer":0,
			"byteLength":24,
			"byteOffset":33752
		},
		{
			"buffer":0,
			"byteLength":32,
			"byteOffset":33776
		},
		{
			"buffer":0,
			"byteLength":24,
			"byteOffset":33808
		},
		{
			"buffer":0,
			"byteLength":24,
			"byteOffset":33832
		},
		{
			"buffer":0,
			"byteLength":32,
			"byteOffset":33856
		},
		{
			"buffer":0,
			"byteLength":24,
			"byteOffset":33888
		},
		{
			"buffer":0,
			"byteLength":24,
			"byteOffset":33912
		},
		{
			"buffer":0,
			"byteLength":1936,
			"byteOffset":33936
		},
		{
			"buffer":0,
			"byteLength":1452,
			"byteOffset":35872
		},
		{
			"buffer":0,
			"byteLength":24,
			"byteOffset":37324
		},
		{
			"buffer":0,
			"byteLength":32,
			"byteOffset":37348
		},
		{
			"buffer":0,
			"byteLength":24,
			"byteOffset":37380
		},
		{
			"buffer":0,
			"byteLength":24,
			"byteOffset":37404
		},
		{
			"buffer":0,
			"byteLength":32,
			"byteOffset":37428
		},
		{
			"buffer":0,
			"byteLength":24,
			"byteOffset":37460
		},
		{
			"buffer":0,
			"byteLength":24,
			"byteOffset":37484
		},
		{
			"buffer":0,
			"byteLength":32,
			"byteOffset":37508
		},
		{
			"buffer":0,
			"byteLength":24,
			"byteOffset":37540
		},
		{
			"buffer":0,
			"byteLength":24,
			"byteOffset":37564
		},
		{
			"buffer":0,
			"byteLength":1936,
			"byteOffset":37588
		},
		{
			"buffer":0,
			"byteLength":1452,
			"byteOffset":39524
		},
		{
			"buffer":0,
			"byteLength":24,
			"byteOffset":40976
		},
		{
			"buffer":0,
			"byteLength":32,
			"byteOffset":41000
		},
		{
			"buffer":0,
			"byteLength":24,
			"byteOffset":41032
		}
	],
	"samplers":[
		{
			"magFilter":9729,
			"minFilter":9987
		}
	],
	"buffers":[
		{
			"byteLength":41056,
			"uri":"Ghost.bin"
		}
	]
}
