{
	"asset":{
		"generator":"Khronos glTF Blender I/O v4.1.63",
		"version":"2.0"
	},
	"scene":0,
	"scenes":[
		{
			"name":"Scene",
			"nodes":[
				0,
				1
			]
		}
	],
	"nodes":[
		{
			"name":"fence_01.001",
			"translation":[
				0.094696044921875,
				1.6611281633377075,
				-12.504263877868652
			]
		},
		{
			"mesh":0,
			"name":"cemetery03.001",
			"translation":[
				0.017830848693847656,
				0.1905214637517929,
				-0.11990123987197876
			]
		}
	],
	"materials":[
		{
			"doubleSided":true,
			"emissiveFactor":[
				0.10653527081012726,
				0.10653527081012726,
				0.10653527081012726
			],
			"name":"Material.069",
			"pbrMetallicRoughness":{
				"baseColorTexture":{
					"index":0
				},
				"metallicFactor":0,
				"roughnessFactor":0.5
			}
		}
	],
	"meshes":[
		{
			"name":"Cube.025",
			"primitives":[
				{
					"attributes":{
						"POSITION":0,
						"NORMAL":1,
						"TEXCOORD_0":2
					},
					"indices":3,
					"material":0
				}
			]
		}
	],
	"textures":[
		{
			"sampler":0,
			"source":0
		}
	],
	"images":[
		{
			"mimeType":"image/png",
			"name":"Grave",
			"uri":"Grave.png"
		}
	],
	"accessors":[
		{
			"bufferView":0,
			"componentType":5126,
			"count":187,
			"max":[
				0.4522289037704468,
				2.8333792686462402,
				1.1328269243240356
			],
			"min":[
				-0.4522289037704468,
				-0.19396944344043732,
				-1.1328269243240356
			],
			"type":"VEC3"
		},
		{
			"bufferView":1,
			"componentType":5126,
			"count":187,
			"type":"VEC3"
		},
		{
			"bufferView":2,
			"componentType":5126,
			"count":187,
			"type":"VEC2"
		},
		{
			"bufferView":3,
			"componentType":5123,
			"count":432,
			"type":"SCALAR"
		}
	],
	"bufferViews":[
		{
			"buffer":0,
			"byteLength":2244,
			"byteOffset":0,
			"target":34962
		},
		{
			"buffer":0,
			"byteLength":2244,
			"byteOffset":2244,
			"target":34962
		},
		{
			"buffer":0,
			"byteLength":1496,
			"byteOffset":4488,
			"target":34962
		},
		{
			"buffer":0,
			"byteLength":864,
			"byteOffset":5984,
			"target":34963
		}
	],
	"samplers":[
		{
			"magFilter":9729,
			"minFilter":9987
		}
	],
	"buffers":[
		{
			"byteLength":6848,
			"uri":"Grave.bin"
		}
	]
}
