# Blender 4.1.1
# www.blender.org
mtllib GatePillar.mtl
o Gate_Plane.001
v 0.773954 0.000000 0.999999
v 0.773954 -0.000000 -1.000000
v 0.773954 8.000000 0.999998
v -0.793054 0.000000 0.999999
v -0.793054 -0.000000 -1.000001
v -0.793054 8.000000 0.999998
v -0.793054 8.000000 -1.000002
v 0.773954 8.000000 -1.000002
vn -0.0000 -1.0000 -0.0000
vn 1.0000 -0.0000 -0.0000
vn -0.0000 -0.0000 1.0000
vn -1.0000 -0.0000 -0.0000
vn -0.0000 1.0000 -0.0000
vn -0.0000 -0.0000 -1.0000
vt 0.080461 0.998375
vt 0.001189 0.890021
vt 0.080461 0.890021
vt 0.813296 0.452919
vt 0.712120 0.886335
vt 0.712120 0.452919
vt 0.897654 0.886336
vt 0.976926 0.452920
vt 0.976926 0.886336
vt 0.607908 0.439917
vt 0.709084 0.006501
vt 0.709085 0.439917
vt 0.325413 0.998375
vt 0.246140 0.890021
vt 0.325413 0.890021
vt 0.816003 0.439917
vt 0.895276 0.006501
vt 0.895276 0.439917
vt 0.001189 0.998375
vt 0.813296 0.886335
vt 0.897654 0.452920
vt 0.607908 0.006501
vt 0.246140 0.998375
vt 0.816003 0.006501
s 1
usemtl bkdGate
f 1/1/1 5/2/1 2/3/1
f 2/4/2 3/5/2 1/6/2
f 1/7/3 6/8/3 4/9/3
f 4/10/4 7/11/4 5/12/4
f 6/13/5 8/14/5 7/15/5
f 5/16/6 8/17/6 2/18/6
f 1/1/1 4/19/1 5/2/1
f 2/4/2 8/20/2 3/5/2
f 1/7/3 3/21/3 6/8/3
f 4/10/4 6/22/4 7/11/4
f 6/13/5 3/23/5 8/14/5
f 5/16/6 7/24/6 8/17/6
